<svg width="694" height="483" viewBox="0 0 694 483" xmlns="http://www.w3.org/2000/svg" xmlns:xlink="http://www.w3.org/1999/xlink"><defs><path d="M123.984 68.653h33.967a5.918 5.918 0 0 1 0 11.837H5.918a5.918 5.918 0 1 1 0-11.837h36.129L49.632 0h64.87l9.482 68.653z" id="a"/><filter x="-4.9%" y="-31.2%" width="109.9%" height="162.5%" filterUnits="objectBoundingBox" id="b"><feGaussianBlur stdDeviation="1.356" in="SourceGraphic"/></filter><path d="M226.333.105H16.162C7.28.105.082 7.363.082 16.315v.26c0 8.953 7.199 16.21 16.08 16.21h210.171c-13.56-11.907 12.448-20.885 0-32.68z" id="d"/><linearGradient x1="53.562%" y1="2.439%" x2="51.804%" y2="196.086%" id="e"><stop stop-color="#A1A1F4" offset="0%"/><stop stop-color="#2020F3" offset="100%"/></linearGradient><path d="M297.133.105H16.162C7.28.105.082 7.363.082 16.315v.26c0 8.953 7.199 16.21 16.08 16.21h280.97c-13.56-11.907 12.448-20.885 0-32.68z" id="g"/><linearGradient x1="53.562%" y1="2.439%" x2="51.804%" y2="196.086%" id="h"><stop stop-color="#51FF4D" offset="0%"/><stop stop-color="#027716" offset="100%"/></linearGradient><path d="M116.598.105H16.162C7.28.105.082 7.363.082 16.315v.26c0 8.953 7.199 16.21 16.08 16.21h100.436c-13.56-11.907 12.448-20.885 0-32.68z" id="j"/><linearGradient x1="53.562%" y1="2.439%" x2="51.853%" y2="190.668%" id="k"><stop stop-color="#FCDA8B" offset="0%"/><stop stop-color="#910000" offset="100%"/></linearGradient><path d="M109.051.049H8.233C3.973.049.519 3.427.519 7.593v.121c0 4.167 3.453 7.545 7.714 7.545H109.05c-6.504-5.542 5.972-9.72 0-15.21z" id="m"/><path d="M143.014.049H8.233C3.973.049.519 3.427.519 7.593v.121c0 4.167 3.453 7.545 7.714 7.545h134.78c-6.504-5.542 5.972-9.72 0-15.21z" id="o"/><path d="M56.412.049H8.232C3.973.049.52 3.427.52 7.593v.121c0 4.167 3.453 7.545 7.714 7.545h48.179c-6.505-5.542 5.971-9.72 0-15.21z" id="q"/><path d="M14.147 1.722a3.634 3.634 0 0 0 3.632 3.636h28.293a3.634 3.634 0 0 0 3.632-3.636c0-.951.771-1.722 1.722-1.722h5.925c3.59 0 6.5 2.913 6.5 6.506v125.52a6.503 6.503 0 0 1-6.5 6.506H6.5c-3.59 0-6.5-2.913-6.5-6.506V6.506A6.503 6.503 0 0 1 6.5 0h5.924c.952 0 1.723.771 1.723 1.722z" id="s"/><linearGradient x1="1.648%" y1="37.448%" y2="46.098%" id="u"><stop stop-color="#51FF4D" offset="0%"/><stop stop-color="#027716" offset="100%"/></linearGradient></defs><g fill="none" fill-rule="evenodd"><path fill="#353530" d="M104.456 375H694v67.846H0z"/><path fill="#262621" d="M0 442.846h694v20.769H0z"/><path fill="#222215" d="M80.504 462.231H694V483H80.504z"/><g transform="translate(155)"><ellipse fill="#242424" cx="252.053" cy="402.449" rx="159.009" ry="5.551"/><g transform="translate(152.76 323.347)"><mask id="c" fill="#fff"><use xlink:href="#a"/></mask><use fill="#D8D8D8" xlink:href="#a"/><path fill="#000" style="mix-blend-mode:overlay" filter="url(#b)" mask="url(#c)" d="M41.262 23.02h82.524v13.02H41.262z"/></g><path d="M16 0h436c8.837 0 16 7.163 16 16v317.714c0 8.837-7.163 16-16 16H16c-8.837 0-16-7.163-16-16V16C0 7.163 7.163 0 16 0z" fill="#000"/><path d="M0 295.592h468v39.51c0 8.837-7.163 16-16 16H16c-8.837 0-16-7.163-16-16v-39.51z" fill="#DDD"/><path fill="#AB4CFF" d="M12.499 12.49h443.003v269.224H12.499z"/><ellipse fill="#B9B9B9" cx="234.694" cy="320.571" rx="11.11" ry="11.102"/><path d="M426.074 109.277c0-11.293-9.094-20.46-20.297-20.46H61.959c-11.202 0-20.297 9.167-20.297 20.46 0 11.293 9.095 20.461 20.297 20.461h343.818c11.203 0 20.297-9.168 20.297-20.46z" stroke="#FFF" stroke-width="2" fill="#D7D9FF"/><path d="M363.668 122.556c1.494.328 1.906 2.998-.223 3.151h-85.34c-1.385-.1-2.122-2.09-.849-2.915.25-.163.546-.23.848-.252h85.34l.224.016zM398.918 122.546c.706.089.808.268 1.025.505.821.9.267 2.597-1.155 2.656h-27.902c-1.57-.065-2.259-3.072 0-3.167h27.902l.13.006z" fill="#FFF" opacity=".455"/><path d="M272.597 92.978c12.342 11.685-13.588 20.793-.072 32.646 13.89-12.005-12.898-21.173.072-32.646z" fill="#100FFF"/><g transform="translate(46.202 92.863)"><mask id="f" fill="#fff"><use xlink:href="#d"/></mask><path d="M226.333.105H16.162C7.28.105.082 7.363.082 16.315v.26c0 8.953 7.199 16.21 16.08 16.21h210.171c-13.56-11.907 12.448-20.885 0-32.68z" fill="url(#e)" mask="url(#f)"/></g><path d="M403.557 92.96c8.947.001 16.21 7.323 16.21 16.341 0 1.082-.105 2.14-.305 3.162-1.462-7.507-8.032-13.178-15.905-13.178H62.31c-7.874 0-14.444 5.67-15.906 13.178-.2-1.023-.304-2.08-.304-3.162 0-9.018 7.263-16.34 16.21-16.34h341.247z" fill-opacity=".5" fill="#FFF" style="mix-blend-mode:soft-light"/><g transform="translate(41.662 24.98)" fill="#FFF"><rect width="95.822" height="13.878" rx="6"/><rect x="333.294" width="47.217" height="13.878" rx="6"/><rect opacity=".569" y="22.204" width="59.715" height="9.714" rx="4.857"/><rect opacity=".569" x="206.92" y="22.204" width="30.552" height="9.714" rx="4.857"/><rect opacity=".569" x="66.659" y="22.204" width="83.323" height="9.714" rx="4.857"/><rect opacity=".569" x="156.926" y="22.204" width="18.053" height="9.714" rx="4.857"/><rect opacity=".569" x="181.923" y="22.204" width="18.053" height="9.714" rx="4.857"/><rect opacity=".569" y="37.469" width="41.662" height="9.714" rx="4.857"/><rect opacity=".569" x="48.605" y="37.469" width="59.715" height="9.714" rx="4.857"/><rect opacity=".569" x="115.264" y="37.469" width="34.718" height="9.714" rx="4.857"/></g><g><path d="M426.074 164.787c0-11.292-9.094-20.46-20.297-20.46H61.959c-11.202 0-20.297 9.168-20.297 20.46 0 11.293 9.095 20.461 20.297 20.461h343.818c11.203 0 20.297-9.168 20.297-20.46z" stroke="#FFF" stroke-width="2" fill="#A7F9B5"/><path d="M343.397 148.488c12.341 11.685-13.589 20.793-.072 32.646 13.89-12.004-12.899-21.172.072-32.646z" fill="#02940A"/><g transform="translate(46.202 148.374)"><mask id="i" fill="#fff"><use xlink:href="#g"/></mask><path d="M297.133.105H16.162C7.28.105.082 7.363.082 16.315v.26c0 8.953 7.199 16.21 16.08 16.21h280.97c-13.56-11.907 12.448-20.885 0-32.68z" fill="url(#h)" mask="url(#i)"/></g><path d="M363.668 178.067c1.494.327 1.906 2.997-.223 3.15h-12.766c-1.384-.1-2.122-2.09-.849-2.915.25-.162.547-.23.849-.251h12.766l.223.016zM398.918 178.056c.706.089.808.268 1.025.506.821.899.267 2.596-1.155 2.655h-27.902c-1.57-.065-2.259-3.072 0-3.166h27.902l.13.005z" fill="#FFF" opacity=".5"/><path d="M403.557 148.471c8.947 0 16.21 7.322 16.21 16.34 0 1.082-.105 2.14-.305 3.162-1.462-7.507-8.032-13.178-15.905-13.178H62.31c-7.874 0-14.444 5.671-15.906 13.178-.2-1.023-.304-2.08-.304-3.162 0-9.018 7.263-16.34 16.21-16.34h341.247z" fill-opacity=".5" fill="#FFF" style="mix-blend-mode:overlay"/></g><g><path d="M426.074 220.298c0-11.293-9.094-20.461-20.297-20.461H61.959c-11.202 0-20.297 9.168-20.297 20.46 0 11.293 9.095 20.461 20.297 20.461h343.818c11.203 0 20.297-9.168 20.297-20.46z" stroke="#FFF" stroke-width="2" fill="#D8CC65"/><path d="M162.863 203.999c12.341 11.684-13.59 20.792-.072 32.646 13.89-12.005-12.899-21.173.072-32.646z" fill="#02940A"/><g transform="translate(46.202 203.884)"><mask id="l" fill="#fff"><use xlink:href="#j"/></mask><path d="M116.598.105H16.162C7.28.105.082 7.363.082 16.315v.26c0 8.953 7.199 16.21 16.08 16.21h100.436c-13.56-11.907 12.448-20.885 0-32.68z" fill="url(#k)" mask="url(#l)"/></g><path d="M363.668 233.577c1.494.327 1.906 2.997-.223 3.15h-12.766c-1.384-.1-2.122-2.09-.849-2.915.25-.162.547-.23.849-.251h12.766l.223.016zM398.918 233.566c.706.089.808.268 1.025.506.821.899.267 2.596-1.155 2.656h-27.902c-1.57-.066-2.259-3.073 0-3.167h27.902l.13.005z" fill="#FFF" opacity=".5"/><path d="M403.557 203.981c8.947 0 16.21 7.322 16.21 16.34 0 1.082-.105 2.14-.305 3.163-1.462-7.508-8.032-13.179-15.905-13.179H62.31c-7.874 0-14.444 5.671-15.906 13.179-.2-1.023-.304-2.08-.304-3.162 0-9.019 7.263-16.34 16.21-16.34h341.247z" fill-opacity=".5" fill="#FFF" style="mix-blend-mode:overlay"/></g></g><g transform="translate(81 260)"><ellipse fill="#242424" cx="135.969" cy="167.464" rx="129.031" ry="5.536"/><path d="M6 0h229.414a6 6 0 0 1 6 6v156.848a6 6 0 0 1-6 6H6a6 6 0 0 1-6-6V6a6 6 0 0 1 6-6z" fill="#000"/><path fill="#AB4CFF" d="M16.649 6.92h203.953v152.24H16.649z"/><path d="M213.538 59.347c0-5.256-4.362-9.523-9.736-9.523H38.872c-5.373 0-9.736 4.267-9.736 9.523 0 5.255 4.363 9.522 9.737 9.522h164.929c5.374 0 9.736-4.267 9.736-9.522z" stroke="#FFF" fill="#D7D9FF"/><path d="M183.602 65.527c.717.152.914 1.395-.107 1.466h-40.938c-.664-.046-1.017-.973-.407-1.357a.87.87 0 0 1 .407-.117h40.938l.107.008zM200.511 65.522c.34.041.388.124.492.235.394.419.128 1.209-.554 1.236h-13.385c-.752-.03-1.083-1.43 0-1.474h13.385l.062.003z" fill="#FFF" opacity=".455"/><path d="M139.916 51.76c5.92 5.44-6.519 9.678-.035 15.195 6.663-5.588-6.187-9.854.035-15.194z" fill="#100FFF"/><g transform="translate(30.834 51.708)"><mask id="n" fill="#fff"><use xlink:href="#m"/></mask><path d="M109.051.049H8.233C3.973.049.519 3.427.519 7.593v.121c0 4.167 3.453 7.545 7.714 7.545H109.05c-6.504-5.542 5.972-9.72 0-15.21z" fill="url(#e)" mask="url(#n)"/></g><path d="M202.737 51.753c4.292 0 7.776 3.408 7.776 7.605 0 .503-.05.995-.146 1.471-.702-3.494-3.853-6.133-7.63-6.133H39.041c-3.777 0-6.929 2.64-7.63 6.133a7.465 7.465 0 0 1-.146-1.471c0-4.197 3.484-7.605 7.776-7.605h163.696z" fill-opacity=".5" fill="#FFF" style="mix-blend-mode:soft-light"/><path fill="#EDB2FE" d="M16.649 145.32h203.953v16.608H16.649z"/><g transform="translate(30.524 146.704)" fill="#7D7EFF"><ellipse cx="8.325" cy="5.19" rx="4.995" ry="5.19"/><rect y="12.11" width="16.649" height="1.73" rx=".865"/></g><g transform="translate(83.246 146.704)" fill="#7D7EFF"><ellipse cx="8.325" cy="5.19" rx="4.995" ry="5.19"/><rect y="12.11" width="16.649" height="1.73" rx=".865"/></g><g transform="translate(137.356 146.704)" fill="#7D7EFF"><ellipse cx="8.325" cy="5.19" rx="4.995" ry="5.19"/><rect y="12.11" width="16.649" height="1.73" rx=".865"/></g><g transform="translate(190.079 146.704)" fill="#7D7EFF"><ellipse cx="8.325" cy="5.19" rx="4.995" ry="5.19"/><rect y="12.11" width="16.649" height="1.73" rx=".865"/></g><g transform="translate(29.136 16.608)" fill="#FFF"><rect width="46.12" height="6.513" rx="3.256"/><rect x="160.416" width="22.726" height="6.513" rx="3.256"/><rect opacity=".569" y="10.421" width="28.741" height="4.559" rx="2.28"/><rect opacity=".569" x="99.591" y="10.421" width="14.705" height="4.559" rx="2.28"/><rect opacity=".569" x="32.083" y="10.421" width="40.104" height="4.559" rx="2.28"/><rect opacity=".569" x="75.529" y="10.421" width="8.689" height="4.559" rx="2.28"/><rect opacity=".569" x="87.56" y="10.421" width="8.689" height="4.559" rx="2.28"/><rect opacity=".569" y="17.585" width="20.052" height="4.559" rx="2.28"/><rect opacity=".569" x="23.394" y="17.585" width="28.741" height="4.559" rx="2.28"/><rect opacity=".569" x="55.477" y="17.585" width="16.71" height="4.559" rx="2.28"/></g><g><path d="M213.538 92.563c0-5.256-4.362-9.523-9.736-9.523H38.872c-5.373 0-9.736 4.267-9.736 9.523 0 5.255 4.363 9.522 9.737 9.522h164.929c5.374 0 9.736-4.267 9.736-9.522z" stroke="#FFF" fill="#A7F9B5"/><path d="M173.878 84.977c5.92 5.438-6.518 9.677-.035 15.194 6.663-5.588-6.187-9.854.035-15.194z" fill="#02940A"/><g transform="translate(30.834 84.924)"><mask id="p" fill="#fff"><use xlink:href="#o"/></mask><path d="M143.014.049H8.233C3.973.049.519 3.427.519 7.593v.121c0 4.167 3.453 7.545 7.714 7.545h134.78c-6.504-5.542 5.972-9.72 0-15.21z" fill="url(#h)" mask="url(#p)"/></g><path d="M183.602 98.743c.717.152.914 1.395-.107 1.466h-6.124c-.664-.046-1.018-.973-.407-1.357a.87.87 0 0 1 .407-.117h6.124l.107.008zM200.511 98.738c.34.041.388.124.492.235.394.419.128 1.209-.554 1.236h-13.385c-.752-.03-1.083-1.43 0-1.474h13.385l.062.003z" fill="#FFF" opacity=".5"/><path d="M202.737 84.969c4.292 0 7.776 3.408 7.776 7.605 0 .503-.05.995-.146 1.471-.702-3.494-3.853-6.133-7.63-6.133H39.041c-3.777 0-6.929 2.64-7.63 6.133a7.465 7.465 0 0 1-.146-1.471c0-4.197 3.484-7.605 7.776-7.605h163.696z" fill-opacity=".5" fill="#FFF" style="mix-blend-mode:overlay"/></g><g><path d="M213.538 124.395c0-5.256-4.362-9.523-9.736-9.523H38.872c-5.373 0-9.736 4.267-9.736 9.523 0 5.255 4.363 9.522 9.737 9.522h164.929c5.374 0 9.736-4.267 9.736-9.522z" stroke="#FFF" fill="#D8CC65"/><path d="M87.276 116.809c5.92 5.438-6.518 9.677-.034 15.194 6.662-5.588-6.188-9.854.034-15.194z" fill="#02940A"/><g transform="translate(30.834 116.756)"><mask id="r" fill="#fff"><use xlink:href="#q"/></mask><path d="M56.412.049H8.232C3.973.049.52 3.427.52 7.593v.121c0 4.167 3.453 7.545 7.714 7.545h48.179c-6.505-5.542 5.971-9.72 0-15.21z" fill="url(#k)" mask="url(#r)"/></g><path d="M183.602 130.575c.717.152.914 1.395-.107 1.466h-6.124c-.664-.046-1.018-.973-.407-1.357a.87.87 0 0 1 .407-.117h6.124l.107.008zM200.511 130.57c.34.041.388.124.492.235.394.419.128 1.209-.554 1.236h-13.385c-.752-.03-1.083-1.43 0-1.474h13.385l.062.003z" fill="#FFF" opacity=".5"/><path d="M202.737 116.8c4.292.001 7.776 3.409 7.776 7.606 0 .503-.05.995-.146 1.471-.702-3.494-3.853-6.133-7.63-6.133H39.041c-3.777 0-6.929 2.64-7.63 6.133a7.465 7.465 0 0 1-.146-1.471c0-4.197 3.484-7.605 7.776-7.605h163.696z" fill-opacity=".5" fill="#FFF" style="mix-blend-mode:overlay"/></g><g transform="translate(8.325 80.272)" fill="#FFF"><ellipse opacity=".301" cx="2.081" cy="4.844" rx="2.081" ry="2.076"/><ellipse opacity=".3" cx="221.296" cy="4.844" rx="4.856" ry="4.844"/></g></g><g transform="translate(561 269)"><ellipse fill="#242424" cx="49.276" cy="145.459" rx="43.724" ry="5.541"/><path d="M73.182 50.86v84.894c0 6.125-5 11.09-11.17 11.09H11.555c-6.169 0-11.17-4.965-11.17-11.09V54.493A.384.384 0 0 1 0 54.11v-9.942c0-.211.172-.382.385-.382v-2.677A.384.384 0 0 1 0 40.726v-9.942c0-.211.172-.383.385-.383v-4.78H0v-5.736h.385V11.09C.385 4.965 5.386 0 11.555 0h50.457c6.17 0 11.17 4.965 11.17 11.09v22.753c.213 0 .385.171.385.382v16.253a.384.384 0 0 1-.385.382z" fill="#A2A2A2"/><path d="M11.17.956h51.035c5.53 0 10.014 4.451 10.014 9.943v125.238c0 5.49-4.484 9.942-10.014 9.942H11.17c-5.53 0-10.014-4.451-10.014-9.942V10.899C1.156 5.407 5.639.956 11.17.956z" fill="#000"/><ellipse fill="#393939" cx="44.68" cy="5.927" rx="1.348" ry="1.338"/><rect fill="#3D3D3D" x="32.547" y="5.354" width="8.666" height="1.147" rx=".574"/><g transform="translate(4.164 4.156)"><mask id="t" fill="#fff"><use xlink:href="#s"/></mask><use fill="#D8D8D8" xlink:href="#s"/><g mask="url(#t)"><path d="M14.147 1.722a3.634 3.634 0 0 0 3.632 3.636h28.293a3.634 3.634 0 0 0 3.632-3.636c0-.951.771-1.722 1.722-1.722h5.925c3.59 0 6.5 2.913 6.5 6.506v125.52a6.503 6.503 0 0 1-6.5 6.506H6.5c-3.59 0-6.5-2.913-6.5-6.506V6.506A6.503 6.503 0 0 1 6.5 0h5.924c.952 0 1.723.771 1.723 1.722z" fill="#9F33FF"/><path d="M21.793 136.427h20.264a.383.383 0 0 1 0 .766H21.793a.383.383 0 0 1 0-.766z" fill="#FFF"/><g transform="translate(5.162 12.437)" fill="#FFF"><rect width="21.602" height="3.061" rx="1.531"/><rect opacity=".569" y="4.975" width="13.382" height="2.296" rx="1.148"/><rect opacity=".569" x="46.645" y="4.975" width="6.882" height="2.296" rx="1.148"/><rect opacity=".569" x="15.102" y="4.975" width="18.735" height="2.296" rx="1.148"/><rect opacity=".569" x="35.366" y="4.975" width="4.015" height="2.296" rx="1.148"/><rect opacity=".569" x="41.102" y="4.975" width="4.015" height="2.296" rx="1.148"/></g><g transform="translate(5.162 75.58)" fill="#FFF"><rect width="21.602" height="3.061" rx="1.531"/><rect opacity=".569" y="4.975" width="13.382" height="2.296" rx="1.148"/><rect opacity=".569" x="46.645" y="4.975" width="6.882" height="2.296" rx="1.148"/><rect opacity=".569" x="15.102" y="4.975" width="18.735" height="2.296" rx="1.148"/><rect opacity=".569" x="35.366" y="4.975" width="4.015" height="2.296" rx="1.148"/><rect opacity=".569" x="41.102" y="4.975" width="4.015" height="2.296" rx="1.148"/></g><path d="M32.117 21.622c13.725 0 24.852 11.136 24.852 24.874S45.842 71.371 32.117 71.371c-13.726 0-24.853-11.137-24.853-24.875s11.127-24.874 24.853-24.874z" fill="#D7D9FF"/><path d="M32.117 22.77C19.025 22.77 8.41 33.392 8.41 46.496s10.614 23.727 23.706 23.727c13.091 0 23.705-10.623 23.705-23.727 0-13.104-10.614-23.726-23.705-23.726zm0-1.148c13.725 0 24.852 11.136 24.852 24.874S45.842 71.371 32.117 71.371c-13.726 0-24.853-11.137-24.853-24.875s11.127-24.874 24.853-24.874z" fill="#FFF" fill-rule="nonzero"/><path d="M54.483 46.496c0 12.364-10.014 22.387-22.366 22.387-12.353 0-22.367-10.023-22.367-22.387 19.641 17.215 25.377-16.107 44.733 0z" fill="#362EFC"/><path d="M47.219 24.875c0 12.364-10.014 22.387-22.367 22.387-12.353 0-22.367-10.023-22.367-22.387 19.642 17.214 25.377-16.107 44.734 0z" fill="url(#e)" transform="matrix(-1 0 0 1 56.969 21.622)"/><path d="M34.124 24.19c-11.511.97-20.55 10.63-20.55 22.402s9.039 21.431 20.55 22.402c-.63.054-1.268.08-1.912.08-12.406 0-22.462-10.065-22.462-22.482s10.056-22.483 22.462-22.483c.644 0 1.282.027 1.912.08z" fill="#FFF" style="mix-blend-mode:soft-light" opacity=".734"/><path d="M39.036 25.2c7.327 2.38 12.585 8.189 14.577 15.076.144.804-.98.976-1.153.156-1.874-6.044-5.733-11.046-13.789-14.11-.876-.244-.485-1.362.365-1.122z" fill="#FFF" fill-rule="nonzero" opacity=".5"/><g><path d="M32.117 84.765c13.725 0 24.852 11.137 24.852 24.874 0 13.738-11.127 24.875-24.852 24.875-13.726 0-24.853-11.137-24.853-24.875 0-13.737 11.127-24.874 24.853-24.874z" fill="#A7F9B5"/><path d="M32.117 85.913c-13.092 0-23.706 10.623-23.706 23.726 0 13.104 10.614 23.727 23.706 23.727 13.091 0 23.705-10.623 23.705-23.727 0-13.103-10.614-23.726-23.705-23.726zm0-1.148c13.725 0 24.852 11.137 24.852 24.874 0 13.738-11.127 24.875-24.852 24.875-13.726 0-24.853-11.137-24.853-24.875 0-13.737 11.127-24.874 24.853-24.874z" fill="#FFF" fill-rule="nonzero"/><path d="M51.44 98.357a22.3 22.3 0 0 1 3.043 11.282c0 12.364-10.014 22.387-22.366 22.387-12.353 0-22.367-10.023-22.367-22.387 0-4.117 1.11-7.975 3.048-11.29 15.212 11.556 23.837-10.48 38.642.008z" fill="#14A20A"/><path d="M44.175 13.592a22.3 22.3 0 0 1 3.044 11.283c0 12.364-10.014 22.387-22.367 22.387-12.353 0-22.367-10.023-22.367-22.387 0-4.118 1.11-7.976 3.049-11.29 15.212 11.555 23.837-10.48 38.641.007z" fill="url(#u)" transform="matrix(-1 0 0 1 56.969 84.765)"/><path d="M34.124 87.333c-11.511.97-20.55 10.63-20.55 22.402s9.039 21.432 20.55 22.403c-.63.053-1.268.08-1.912.08-12.406 0-22.462-10.066-22.462-22.483s10.056-22.483 22.462-22.483c.644 0 1.282.027 1.912.08z" fill="#FFF" style="mix-blend-mode:soft-light" opacity=".734"/><path d="M39.035 88.342a22.256 22.256 0 0 1 8.882 5.43c.623.767-.267 1.3-.881.767-2.105-2.014-4.832-3.73-8.366-5.075-.876-.244-.485-1.362.365-1.122z" fill="#FFF" fill-rule="nonzero" opacity=".5"/></g></g></g></g></g></svg>